<svg xmlns = "http://www.w3.org/2000/svg" width = "1000" height = "1000">
<g>
<polygon points = "283.074, 602.705 198.171, 673.546 184.505, 715.974 203.856, 759.584 307.190, 733.074 287.395, 604.284 "
fill = "none" stroke = "white"/>
</g>
<g>
<polygon points = "308.452, 37.369 309.107, 108.904 436.224, 105.446 448.457, 0.000 330.377, 0.000 "
fill = "none" stroke = "white"/>
</g>
<g>
<polygon points = "633.326, 419.278 508.528, 406.576 496.114, 424.164 501.200, 435.894 635.524, 502.035 "
fill = "none" stroke = "white"/>
</g>
<g>
<polygon points = "218.960, 503.301 97.980, 567.376 168.774, 624.995 233.276, 517.911 "
fill = "none" stroke = "white"/>
</g>
<g>
<polygon points = "49.377, 471.736 0.000, 440.517 0.000, 590.766 75.568, 564.008 "
fill = "none" stroke = "white"/>
</g>
<g>
<polygon points = "714.218, 33.939 647.783, 115.138 692.403, 203.698 746.915, 163.682 774.904, 83.547 "
fill = "none" stroke = "white"/>
</g>
<g>
<polygon points = "782.554, 552.984 780.720, 464.837 756.841, 439.593 656.662, 502.142 767.709, 561.333 "
fill = "none" stroke = "white"/>
</g>
<g>
<polygon points = "944.603, 127.637 885.314, 155.586 868.604, 192.580 887.457, 245.899 1000.000, 275.580 1000.000, 123.191 "
fill = "none" stroke = "white"/>
</g>
<g>
<polygon points = "95.820, 957.608 64.565, 917.790 0.000, 915.189 0.000, 1000.000 100.422, 1000.000 "
fill = "none" stroke = "white"/>
</g>
<g>
<polygon points = "600.173, 706.344 509.974, 626.104 483.278, 657.560 471.676, 773.795 524.579, 779.426 600.926, 718.809 "
fill = "none" stroke = "white"/>
</g>
<g>
<polygon points = "787.803, 80.749 885.314, 155.586 944.603, 127.637 847.819, 28.884 "
fill = "none" stroke = "white"/>
</g>
<g>
<polygon points = "94.722, 246.849 124.017, 209.489 53.260, 165.195 0.000, 167.250 0.000, 215.920 "
fill = "none" stroke = "white"/>
</g>
<g>
<polygon points = "509.075, 617.843 541.408, 571.428 501.857, 440.981 436.233, 578.396 "
fill = "none" stroke = "white"/>
</g>
<g>
<polygon points = "366.360, 937.334 319.352, 850.031 222.994, 844.463 215.473, 885.829 221.525, 897.590 347.403, 1000.000 349.048, 1000.000 "
fill = "none" stroke = "white"/>
</g>
<g>
<polygon points = "0.000, 91.219 0.000, 167.250 53.260, 165.195 73.631, 111.300 "
fill = "none" stroke = "white"/>
</g>
<g>
<polygon points = "717.051, 650.320 737.447, 588.856 625.100, 552.753 649.659, 659.491 "
fill = "none" stroke = "white"/>
</g>
<g>
<polygon points = "221.525, 897.590 214.764, 962.559 297.646, 1000.000 347.403, 1000.000 "
fill = "none" stroke = "white"/>
</g>
<g>
<polygon points = "442.156, 823.468 424.434, 827.334 368.166, 936.004 486.667, 898.035 "
fill = "none" stroke = "white"/>
</g>
<g>
<polygon points = "871.811, 445.848 780.720, 464.837 782.554, 552.984 845.216, 588.326 866.375, 596.193 909.661, 573.719 899.819, 469.714 "
fill = "none" stroke = "white"/>
</g>
<g>
<polygon points = "206.161, 338.146 144.394, 326.135 105.013, 371.064 114.221, 402.113 179.795, 410.615 "
fill = "none" stroke = "white"/>
</g>
<g>
<polygon points = "218.699, 501.730 218.960, 503.301 233.276, 517.911 240.861, 523.600 339.999, 488.203 297.478, 393.090 "
fill = "none" stroke = "white"/>
</g>
<g>
<polygon points = "774.904, 83.547 746.915, 163.682 808.859, 200.584 868.604, 192.580 885.314, 155.586 787.803, 80.749 "
fill = "none" stroke = "white"/>
</g>
<g>
<polygon points = "975.183, 701.892 958.123, 712.941 947.734, 838.349 955.496, 855.367 963.142, 859.825 1000.000, 865.643 1000.000, 705.264 "
fill = "none" stroke = "white"/>
</g>
<g>
<polygon points = "465.472, 195.622 462.764, 141.159 436.224, 105.446 309.107, 108.904 292.994, 132.937 308.761, 196.010 422.654, 211.385 "
fill = "none" stroke = "white"/>
</g>
<g>
<polygon points = "748.736, 416.061 690.516, 383.436 670.583, 383.901 633.326, 419.278 635.524, 502.035 637.799, 506.560 656.662, 502.142 756.841, 439.593 "
fill = "none" stroke = "white"/>
</g>
<g>
<polygon points = "215.473, 885.829 95.820, 957.608 100.422, 1000.000 197.095, 1000.000 214.764, 962.559 221.525, 897.590 "
fill = "none" stroke = "white"/>
</g>
<g>
<polygon points = "808.388, 912.077 681.221, 927.315 662.067, 946.340 660.653, 1000.000 818.766, 1000.000 "
fill = "none" stroke = "white"/>
</g>
<g>
<polygon points = "682.883, 221.644 623.624, 238.759 605.113, 314.995 670.583, 383.901 690.516, 383.436 716.963, 265.807 "
fill = "none" stroke = "white"/>
</g>
<g>
<polygon points = "496.114, 424.164 508.528, 406.576 517.326, 369.066 486.300, 302.279 378.952, 314.627 342.020, 342.275 466.647, 426.343 "
fill = "none" stroke = "white"/>
</g>
<g>
<polygon points = "662.067, 946.340 574.946, 880.666 552.374, 1000.000 660.653, 1000.000 "
fill = "none" stroke = "white"/>
</g>
<g>
<polygon points = "400.658, 684.853 464.915, 770.142 471.374, 773.937 471.676, 773.795 483.278, 657.560 "
fill = "none" stroke = "white"/>
</g>
<g>
<polygon points = "887.518, 697.911 882.238, 787.949 947.734, 838.349 958.123, 712.941 "
fill = "none" stroke = "white"/>
</g>
<g>
<polygon points = "509.974, 626.104 509.075, 617.843 436.233, 578.396 393.139, 567.408 349.864, 604.170 383.977, 684.456 400.658, 684.853 483.278, 657.560 "
fill = "none" stroke = "white"/>
</g>
<g>
<polygon points = "517.326, 369.066 508.528, 406.576 633.326, 419.278 670.583, 383.901 605.113, 314.995 "
fill = "none" stroke = "white"/>
</g>
<g>
<polygon points = "308.761, 196.010 269.964, 297.595 270.794, 304.927 312.044, 342.143 316.634, 342.750 342.020, 342.275 378.952, 314.628 422.654, 211.385 "
fill = "none" stroke = "white"/>
</g>
<g>
<polygon points = "631.324, 752.967 600.926, 718.809 524.579, 779.426 562.473, 875.976 574.684, 880.206 648.567, 808.263 "
fill = "none" stroke = "white"/>
</g>
<g>
<polygon points = "637.799, 506.560 623.132, 550.439 625.100, 552.753 737.447, 588.856 767.709, 561.333 656.662, 502.142 "
fill = "none" stroke = "white"/>
</g>
<g>
<polygon points = "570.975, 83.801 580.882, 96.531 647.783, 115.138 714.218, 33.939 696.231, 0.000 572.176, 0.000 "
fill = "none" stroke = "white"/>
</g>
<g>
<polygon points = "146.470, 7.704 254.130, 129.624 292.994, 132.937 309.107, 108.904 308.452, 37.369 170.044, 0.000 145.829, 0.000 "
fill = "none" stroke = "white"/>
</g>
<g>
<polygon points = "692.403, 203.698 682.883, 221.644 716.963, 265.807 799.919, 299.065 808.859, 200.584 746.915, 163.682 "
fill = "none" stroke = "white"/>
</g>
<g>
<polygon points = "345.055, 742.553 353.621, 806.902 424.434, 827.334 442.156, 823.468 471.374, 773.937 464.915, 770.142 349.439, 739.291 "
fill = "none" stroke = "white"/>
</g>
<g>
<polygon points = "648.567, 808.263 693.251, 829.306 697.406, 828.571 780.058, 758.909 777.343, 733.827 762.845, 721.254 631.324, 752.967 "
fill = "none" stroke = "white"/>
</g>
<g>
<polygon points = "93.240, 266.288 12.212, 347.805 105.012, 371.064 144.394, 326.135 "
fill = "none" stroke = "white"/>
</g>
<g>
<polygon points = "203.856, 759.584 184.505, 715.974 83.785, 691.934 0.000, 741.751 0.000, 749.061 81.776, 829.207 197.696, 796.170 "
fill = "none" stroke = "white"/>
</g>
<g>
<polygon points = "222.994, 844.463 197.696, 796.170 81.776, 829.207 64.565, 917.790 95.820, 957.608 215.473, 885.829 "
fill = "none" stroke = "white"/>
</g>
<g>
<polygon points = "436.224, 105.446 462.764, 141.159 570.975, 83.801 572.176, 0.000 448.457, 0.000 "
fill = "none" stroke = "white"/>
</g>
<g>
<polygon points = "120.701, 107.353 149.051, 172.799 254.130, 129.624 146.470, 7.704 "
fill = "none" stroke = "white"/>
</g>
<g>
<polygon points = "582.301, 217.090 493.050, 220.183 486.300, 302.279 517.326, 369.066 605.113, 314.995 623.624, 238.759 "
fill = "none" stroke = "white"/>
</g>
<g>
<polygon points = "747.746, 690.107 717.051, 650.320 649.659, 659.491 600.173, 706.344 600.926, 718.809 631.324, 752.967 762.845, 721.254 "
fill = "none" stroke = "white"/>
</g>
<g>
<polygon points = "714.218, 33.939 774.904, 83.547 787.803, 80.749 847.819, 28.884 861.444, 0.000 696.231, 0.000 "
fill = "none" stroke = "white"/>
</g>
<g>
<polygon points = "847.819, 28.884 944.603, 127.637 1000.000, 123.191 1000.000, 0.000 861.444, 0.000 "
fill = "none" stroke = "white"/>
</g>
<g>
<polygon points = "184.505, 715.974 198.171, 673.546 168.774, 624.995 97.980, 567.376 81.947, 567.952 83.785, 691.934 "
fill = "none" stroke = "white"/>
</g>
<g>
<polygon points = "179.795, 410.615 114.221, 402.113 80.971, 455.442 194.040, 470.715 "
fill = "none" stroke = "white"/>
</g>
<g>
<polygon points = "748.736, 416.061 812.112, 324.499 813.255, 312.296 799.919, 299.065 716.963, 265.807 690.516, 383.436 "
fill = "none" stroke = "white"/>
</g>
<g>
<polygon points = "471.676, 773.795 471.374, 773.937 442.156, 823.468 486.667, 898.035 487.288, 898.333 562.473, 875.976 524.579, 779.426 "
fill = "none" stroke = "white"/>
</g>
<g>
<polygon points = "648.567, 808.263 574.684, 880.206 574.946, 880.666 662.067, 946.340 681.221, 927.315 693.251, 829.306 "
fill = "none" stroke = "white"/>
</g>
<g>
<polygon points = "270.794, 304.927 206.161, 338.146 179.795, 410.615 194.040, 470.715 218.699, 501.730 297.478, 393.090 312.044, 342.143 "
fill = "none" stroke = "white"/>
</g>
<g>
<polygon points = "959.919, 347.327 834.138, 302.678 813.255, 312.296 812.112, 324.499 882.353, 397.945 "
fill = "none" stroke = "white"/>
</g>
<g>
<polygon points = "493.050, 220.183 465.472, 195.622 422.654, 211.385 378.952, 314.627 486.300, 302.279 "
fill = "none" stroke = "white"/>
</g>
<g>
<polygon points = "909.661, 573.719 866.375, 596.193 864.811, 679.754 887.518, 697.911 958.123, 712.941 975.183, 701.892 967.098, 581.215 "
fill = "none" stroke = "white"/>
</g>
<g>
<polygon points = "308.452, 37.369 330.377, 0.000 170.044, 0.000 "
fill = "none" stroke = "white"/>
</g>
<g>
<polygon points = "353.621, 806.902 319.352, 850.031 366.360, 937.334 368.166, 936.004 424.434, 827.334 "
fill = "none" stroke = "white"/>
</g>
<g>
<polygon points = "814.594, 901.830 803.286, 785.883 780.058, 758.909 697.406, 828.571 809.631, 908.164 "
fill = "none" stroke = "white"/>
</g>
<g>
<polygon points = "570.975, 83.801 462.764, 141.159 465.472, 195.622 493.050, 220.183 582.301, 217.090 580.882, 96.531 "
fill = "none" stroke = "white"/>
</g>
<g>
<polygon points = "748.736, 416.061 756.841, 439.593 780.720, 464.837 871.811, 445.848 882.353, 397.945 812.112, 324.499 "
fill = "none" stroke = "white"/>
</g>
<g>
<polygon points = "963.142, 859.825 912.086, 1000.000 1000.000, 1000.000 1000.000, 865.643 "
fill = "none" stroke = "white"/>
</g>
<g>
<polygon points = "967.098, 581.215 975.183, 701.892 1000.000, 705.264 1000.000, 568.269 "
fill = "none" stroke = "white"/>
</g>
<g>
<polygon points = "308.760, 196.010 292.994, 132.937 254.130, 129.624 149.051, 172.799 141.636, 197.125 269.964, 297.595 "
fill = "none" stroke = "white"/>
</g>
<g>
<polygon points = "487.288, 898.333 486.667, 898.035 368.166, 936.004 366.360, 937.334 349.048, 1000.000 492.421, 1000.000 "
fill = "none" stroke = "white"/>
</g>
<g>
<polygon points = "866.375, 596.193 845.216, 588.326 747.746, 690.108 762.845, 721.254 777.343, 733.827 864.811, 679.754 "
fill = "none" stroke = "white"/>
</g>
<g>
<polygon points = "0.000, 91.219 73.631, 111.300 120.701, 107.353 146.470, 7.704 145.829, 0.000 0.000, 0.000 "
fill = "none" stroke = "white"/>
</g>
<g>
<polygon points = "240.861, 523.600 233.276, 517.911 168.774, 624.995 198.171, 673.546 283.074, 602.705 "
fill = "none" stroke = "white"/>
</g>
<g>
<polygon points = "541.408, 571.428 509.075, 617.843 509.974, 626.104 600.173, 706.344 649.659, 659.491 625.100, 552.753 623.132, 550.439 "
fill = "none" stroke = "white"/>
</g>
<g>
<polygon points = "307.190, 733.074 203.856, 759.584 197.696, 796.170 222.994, 844.463 319.352, 850.031 353.621, 806.902 345.055, 742.553 "
fill = "none" stroke = "white"/>
</g>
<g>
<polygon points = "623.624, 238.759 682.883, 221.644 692.403, 203.698 647.783, 115.138 580.882, 96.531 582.301, 217.090 "
fill = "none" stroke = "white"/>
</g>
<g>
<polygon points = "959.919, 347.327 882.353, 397.945 871.811, 445.848 899.819, 469.715 1000.000, 442.107 1000.000, 336.962 "
fill = "none" stroke = "white"/>
</g>
<g>
<polygon points = "312.044, 342.143 297.478, 393.090 339.999, 488.203 384.625, 497.721 387.017, 494.391 316.634, 342.750 "
fill = "none" stroke = "white"/>
</g>
<g>
<polygon points = "283.074, 602.705 287.395, 604.284 349.864, 604.170 393.139, 567.408 384.625, 497.721 339.999, 488.203 240.861, 523.600 "
fill = "none" stroke = "white"/>
</g>
<g>
<polygon points = "782.554, 552.984 767.709, 561.333 737.447, 588.856 717.051, 650.320 747.746, 690.108 845.216, 588.326 "
fill = "none" stroke = "white"/>
</g>
<g>
<polygon points = "206.161, 338.146 270.794, 304.927 269.964, 297.595 141.636, 197.125 124.017, 209.489 94.722, 246.849 93.240, 266.288 144.394, 326.135 "
fill = "none" stroke = "white"/>
</g>
<g>
<polygon points = "623.132, 550.439 637.799, 506.560 635.524, 502.035 501.200, 435.894 501.857, 440.981 541.408, 571.428 "
fill = "none" stroke = "white"/>
</g>
<g>
<polygon points = "955.496, 855.367 814.594, 901.830 809.631, 908.164 808.388, 912.077 818.766, 1000.000 912.086, 1000.000 963.142, 859.825 "
fill = "none" stroke = "white"/>
</g>
<g>
<polygon points = "0.000, 749.061 0.000, 915.189 64.565, 917.790 81.776, 829.207 "
fill = "none" stroke = "white"/>
</g>
<g>
<polygon points = "808.388, 912.077 809.631, 908.164 697.406, 828.571 693.251, 829.306 681.221, 927.315 "
fill = "none" stroke = "white"/>
</g>
<g>
<polygon points = "214.764, 962.559 197.095, 1000.000 297.646, 1000.000 "
fill = "none" stroke = "white"/>
</g>
<g>
<polygon points = "864.811, 679.753 777.343, 733.827 780.058, 758.909 803.285, 785.883 882.238, 787.949 887.518, 697.911 "
fill = "none" stroke = "white"/>
</g>
<g>
<polygon points = "887.457, 245.899 834.138, 302.678 959.919, 347.327 1000.000, 336.962 1000.000, 275.580 "
fill = "none" stroke = "white"/>
</g>
<g>
<polygon points = "501.200, 435.894 496.114, 424.164 466.647, 426.343 387.017, 494.391 384.625, 497.721 393.139, 567.408 436.233, 578.396 501.857, 440.981 "
fill = "none" stroke = "white"/>
</g>
<g>
<polygon points = "383.977, 684.456 349.439, 739.291 464.915, 770.142 400.658, 684.853 "
fill = "none" stroke = "white"/>
</g>
<g>
<polygon points = "345.055, 742.553 349.439, 739.291 383.977, 684.456 349.864, 604.170 287.395, 604.284 307.190, 733.074 "
fill = "none" stroke = "white"/>
</g>
<g>
<polygon points = "49.377, 471.736 80.971, 455.442 114.221, 402.113 105.013, 371.064 12.212, 347.805 0.000, 352.842 0.000, 440.517 "
fill = "none" stroke = "white"/>
</g>
<g>
<polygon points = "813.255, 312.296 834.138, 302.678 887.457, 245.899 868.604, 192.580 808.859, 200.584 799.920, 299.065 "
fill = "none" stroke = "white"/>
</g>
<g>
<polygon points = "899.819, 469.715 909.661, 573.719 967.098, 581.215 1000.000, 568.269 1000.000, 442.107 "
fill = "none" stroke = "white"/>
</g>
<g>
<polygon points = "12.212, 347.805 93.240, 266.288 94.722, 246.849 0.000, 215.920 0.000, 352.842 "
fill = "none" stroke = "white"/>
</g>
<g>
<polygon points = "141.636, 197.125 149.051, 172.799 120.701, 107.353 73.631, 111.300 53.260, 165.195 124.017, 209.489 "
fill = "none" stroke = "white"/>
</g>
<g>
<polygon points = "466.647, 426.343 342.020, 342.275 316.634, 342.750 387.017, 494.391 "
fill = "none" stroke = "white"/>
</g>
<g>
<polygon points = "75.568, 564.008 0.000, 590.766 0.000, 741.751 83.785, 691.934 81.947, 567.952 "
fill = "none" stroke = "white"/>
</g>
<g>
<polygon points = "955.496, 855.367 947.734, 838.349 882.238, 787.949 803.285, 785.883 814.594, 901.830 "
fill = "none" stroke = "white"/>
</g>
<g>
<polygon points = "75.568, 564.008 81.947, 567.952 97.980, 567.376 218.960, 503.301 218.699, 501.730 194.040, 470.715 80.971, 455.442 49.377, 471.736 "
fill = "none" stroke = "white"/>
</g>
<g>
<polygon points = "574.684, 880.206 562.473, 875.976 487.288, 898.333 492.421, 1000.000 552.374, 1000.000 574.946, 880.666 "
fill = "none" stroke = "white"/>
</g>
</svg>
