<svg xmlns = "http://www.w3.org/2000/svg" width = "1000" height = "1000">
<g>
<polygon points = "74.016, 518.161 56.150, 542.543 101.123, 577.425 176.671, 496.708 "
fill = "none" stroke = "white"/>
</g>
<g>
<polygon points = "299.272, 205.292 298.763, 204.790 270.135, 205.251 228.429, 218.422 180.073, 239.139 170.665, 330.952 259.837, 365.477 302.077, 210.137 "
fill = "none" stroke = "white"/>
</g>
<g>
<polygon points = "952.392, 362.339 876.894, 372.768 899.872, 498.809 1000.000, 536.834 1000.000, 372.079 "
fill = "none" stroke = "white"/>
</g>
<g>
<polygon points = "0.000, 417.949 0.000, 424.448 47.834, 544.782 56.150, 542.543 74.016, 518.161 78.932, 404.277 "
fill = "none" stroke = "white"/>
</g>
<g>
<polygon points = "124.698, 948.040 99.899, 901.878 0.000, 928.195 0.000, 1000.000 140.811, 1000.000 "
fill = "none" stroke = "white"/>
</g>
<g>
<polygon points = "583.874, 78.614 587.141, 85.326 643.033, 113.887 784.646, 123.242 787.235, 117.270 605.041, 0.000 596.030, 0.000 "
fill = "none" stroke = "white"/>
</g>
<g>
<polygon points = "535.721, 294.497 492.509, 352.848 489.481, 379.923 602.144, 377.150 "
fill = "none" stroke = "white"/>
</g>
<g>
<polygon points = "786.010, 174.250 689.574, 201.053 670.955, 223.799 721.625, 257.304 800.591, 208.866 "
fill = "none" stroke = "white"/>
</g>
<g>
<polygon points = "115.758, 687.000 109.176, 666.646 0.000, 615.318 0.000, 734.976 "
fill = "none" stroke = "white"/>
</g>
<g>
<polygon points = "720.424, 692.661 811.110, 662.730 773.811, 590.742 719.678, 620.788 700.455, 685.243 "
fill = "none" stroke = "white"/>
</g>
<g>
<polygon points = "968.734, 169.080 938.727, 200.146 952.392, 362.339 1000.000, 372.079 1000.000, 154.000 "
fill = "none" stroke = "white"/>
</g>
<g>
<polygon points = "76.726, 44.399 0.000, 92.189 0.000, 160.427 87.692, 177.737 120.793, 114.425 130.631, 78.656 "
fill = "none" stroke = "white"/>
</g>
<g>
<polygon points = "359.158, 563.320 362.698, 572.350 386.790, 573.597 563.954, 552.994 564.190, 552.819 569.123, 539.393 565.126, 536.057 394.101, 491.540 "
fill = "none" stroke = "white"/>
</g>
<g>
<polygon points = "368.110, 773.659 367.462, 770.108 230.349, 776.749 246.513, 856.156 249.572, 861.425 375.595, 895.885 "
fill = "none" stroke = "white"/>
</g>
<g>
<polygon points = "933.729, 900.387 872.845, 897.385 841.332, 1000.000 1000.000, 1000.000 1000.000, 944.084 "
fill = "none" stroke = "white"/>
</g>
<g>
<polygon points = "471.163, 650.366 421.331, 722.082 501.106, 741.437 527.862, 731.197 535.663, 596.311 "
fill = "none" stroke = "white"/>
</g>
<g>
<polygon points = "535.952, 853.503 529.649, 850.981 375.899, 896.721 371.144, 1000.000 445.275, 1000.000 547.745, 875.576 "
fill = "none" stroke = "white"/>
</g>
<g>
<polygon points = "101.123, 577.425 56.150, 542.543 47.834, 544.782 0.000, 568.784 0.000, 615.318 109.176, 666.646 123.957, 597.113 "
fill = "none" stroke = "white"/>
</g>
<g>
<polygon points = "899.872, 498.809 877.357, 527.534 882.250, 566.840 916.296, 617.027 1000.000, 630.391 1000.000, 536.834 "
fill = "none" stroke = "white"/>
</g>
<g>
<polygon points = "87.692, 177.737 0.000, 160.427 0.000, 245.450 77.742, 279.863 129.684, 232.030 "
fill = "none" stroke = "white"/>
</g>
<g>
<polygon points = "129.684, 232.030 77.742, 279.863 68.652, 330.626 93.665, 391.356 121.525, 392.717 170.665, 330.952 180.073, 239.139 "
fill = "none" stroke = "white"/>
</g>
<g>
<polygon points = "581.986, 236.168 654.285, 370.157 659.100, 363.699 650.721, 241.296 "
fill = "none" stroke = "white"/>
</g>
<g>
<polygon points = "916.296, 617.027 866.482, 638.520 827.454, 667.783 853.162, 779.174 919.299, 773.901 1000.000, 739.800 1000.000, 630.391 "
fill = "none" stroke = "white"/>
</g>
<g>
<polygon points = "567.666, 194.634 587.141, 85.326 583.874, 78.614 504.573, 95.670 469.153, 120.873 461.514, 145.662 490.890, 200.593 560.695, 211.164 "
fill = "none" stroke = "white"/>
</g>
<g>
<polygon points = "916.296, 617.027 882.250, 566.840 825.272, 563.360 812.239, 570.022 866.482, 638.520 "
fill = "none" stroke = "white"/>
</g>
<g>
<polygon points = "375.595, 895.885 375.899, 896.721 529.649, 850.981 516.535, 824.366 368.110, 773.659 "
fill = "none" stroke = "white"/>
</g>
<g>
<polygon points = "579.487, 905.623 514.489, 1000.000 581.789, 1000.000 637.610, 922.457 "
fill = "none" stroke = "white"/>
</g>
<g>
<polygon points = "566.543, 228.306 560.695, 211.164 490.890, 200.593 469.076, 222.556 465.856, 280.819 534.932, 290.763 "
fill = "none" stroke = "white"/>
</g>
<g>
<polygon points = "787.235, 117.270 784.646, 123.242 786.010, 174.250 800.591, 208.866 807.336, 217.456 938.727, 200.146 968.734, 169.080 808.048, 82.351 "
fill = "none" stroke = "white"/>
</g>
<g>
<polygon points = "249.571, 861.425 246.513, 856.156 192.449, 859.031 124.698, 948.040 140.811, 1000.000 159.751, 1000.000 "
fill = "none" stroke = "white"/>
</g>
<g>
<polygon points = "339.775, 653.636 362.698, 572.350 359.158, 563.320 325.895, 542.099 216.378, 525.992 202.411, 573.491 235.445, 649.332 "
fill = "none" stroke = "white"/>
</g>
<g>
<polygon points = "727.214, 870.782 793.585, 820.895 720.424, 692.661 700.455, 685.243 675.669, 690.018 652.920, 722.209 693.899, 846.941 714.217, 870.588 "
fill = "none" stroke = "white"/>
</g>
<g>
<polygon points = "306.210, 213.404 302.077, 210.137 259.837, 365.477 268.367, 409.563 306.743, 417.433 346.027, 409.446 390.278, 363.131 386.803, 309.725 "
fill = "none" stroke = "white"/>
</g>
<g>
<polygon points = "569.123, 539.393 564.190, 552.819 569.448, 561.947 675.669, 690.018 700.455, 685.243 719.678, 620.788 634.211, 489.764 "
fill = "none" stroke = "white"/>
</g>
<g>
<polygon points = "87.692, 177.737 129.684, 232.030 180.073, 239.139 228.429, 218.422 120.793, 114.425 "
fill = "none" stroke = "white"/>
</g>
<g>
<polygon points = "919.299, 773.901 933.729, 900.387 1000.000, 944.084 1000.000, 739.800 "
fill = "none" stroke = "white"/>
</g>
<g>
<polygon points = "464.683, 402.987 390.278, 363.131 346.027, 409.446 394.663, 484.494 469.696, 428.851 "
fill = "none" stroke = "white"/>
</g>
<g>
<polygon points = "433.587, 8.293 504.573, 95.670 583.874, 78.614 596.030, 0.000 432.460, 0.000 "
fill = "none" stroke = "white"/>
</g>
<g>
<polygon points = "204.775, 459.158 268.367, 409.563 259.837, 365.477 170.665, 330.952 121.525, 392.717 "
fill = "none" stroke = "white"/>
</g>
<g>
<polygon points = "670.955, 223.799 689.574, 201.053 657.486, 172.852 637.434, 190.021 659.560, 234.087 "
fill = "none" stroke = "white"/>
</g>
<g>
<polygon points = "421.331, 722.082 382.000, 732.819 367.462, 770.108 368.110, 773.659 516.535, 824.366 501.106, 741.437 "
fill = "none" stroke = "white"/>
</g>
<g>
<polygon points = "853.162, 779.174 807.143, 817.862 872.845, 897.385 933.729, 900.387 919.299, 773.901 "
fill = "none" stroke = "white"/>
</g>
<g>
<polygon points = "311.434, 114.002 305.652, 162.467 446.236, 104.958 416.257, 77.609 "
fill = "none" stroke = "white"/>
</g>
<g>
<polygon points = "173.678, 730.633 235.445, 649.332 202.411, 573.491 123.957, 597.113 109.176, 666.646 115.758, 687.000 "
fill = "none" stroke = "white"/>
</g>
<g>
<polygon points = "216.378, 525.992 202.662, 490.221 176.671, 496.708 101.123, 577.425 123.957, 597.113 202.411, 573.491 "
fill = "none" stroke = "white"/>
</g>
<g>
<polygon points = "416.257, 77.609 446.236, 104.958 469.153, 120.873 504.573, 95.670 433.587, 8.293 "
fill = "none" stroke = "white"/>
</g>
<g>
<polygon points = "151.701, 74.986 270.135, 205.251 298.763, 204.790 305.652, 162.467 311.434, 114.002 286.067, 0.000 231.013, 0.000 "
fill = "none" stroke = "white"/>
</g>
<g>
<polygon points = "875.215, 372.472 777.732, 455.001 837.384, 514.090 877.357, 527.534 899.872, 498.809 876.894, 372.768 "
fill = "none" stroke = "white"/>
</g>
<g>
<polygon points = "729.596, 473.172 777.957, 571.180 812.240, 570.022 825.272, 563.360 837.384, 514.090 777.732, 455.001 "
fill = "none" stroke = "white"/>
</g>
<g>
<polygon points = "567.666, 194.634 637.434, 190.021 657.486, 172.852 643.033, 113.888 587.141, 85.326 "
fill = "none" stroke = "white"/>
</g>
<g>
<polygon points = "787.235, 117.270 808.048, 82.351 812.252, 68.356 807.284, 0.000 605.041, 0.000 "
fill = "none" stroke = "white"/>
</g>
<g>
<polygon points = "268.367, 409.563 204.775, 459.158 202.662, 490.221 216.378, 525.992 325.895, 542.099 306.743, 417.433 "
fill = "none" stroke = "white"/>
</g>
<g>
<polygon points = "298.763, 204.790 299.272, 205.292 461.514, 145.662 469.153, 120.873 446.236, 104.958 305.652, 162.467 "
fill = "none" stroke = "white"/>
</g>
<g>
<polygon points = "807.336, 217.456 800.591, 208.866 721.625, 257.304 704.217, 272.821 687.801, 340.569 822.554, 302.554 "
fill = "none" stroke = "white"/>
</g>
<g>
<polygon points = "727.214, 870.782 714.217, 870.588 647.654, 921.737 663.460, 1000.000 793.473, 1000.000 "
fill = "none" stroke = "white"/>
</g>
<g>
<polygon points = "579.487, 905.623 547.745, 875.576 445.275, 1000.000 514.489, 1000.000 "
fill = "none" stroke = "white"/>
</g>
<g>
<polygon points = "534.932, 290.763 465.856, 280.819 449.267, 293.275 492.509, 352.848 535.721, 294.497 "
fill = "none" stroke = "white"/>
</g>
<g>
<polygon points = "812.252, 68.356 808.048, 82.351 968.734, 169.080 1000.000, 154.000 1000.000, 123.773 903.644, 69.741 "
fill = "none" stroke = "white"/>
</g>
<g>
<polygon points = "76.726, 44.399 130.631, 78.656 151.701, 74.986 231.013, 0.000 74.599, 0.000 "
fill = "none" stroke = "white"/>
</g>
<g>
<polygon points = "469.696, 428.851 394.663, 484.494 394.101, 491.540 565.126, 536.057 "
fill = "none" stroke = "white"/>
</g>
<g>
<polygon points = "490.890, 200.593 461.514, 145.662 299.272, 205.292 302.077, 210.137 306.210, 213.404 469.076, 222.556 "
fill = "none" stroke = "white"/>
</g>
<g>
<polygon points = "230.349, 776.749 203.658, 764.942 192.449, 859.031 246.513, 856.156 "
fill = "none" stroke = "white"/>
</g>
<g>
<polygon points = "647.654, 921.737 637.610, 922.457 581.789, 1000.000 663.460, 1000.000 "
fill = "none" stroke = "white"/>
</g>
<g>
<polygon points = "655.930, 464.427 634.211, 489.764 719.678, 620.788 773.811, 590.742 777.957, 571.180 729.596, 473.172 "
fill = "none" stroke = "white"/>
</g>
<g>
<polygon points = "784.646, 123.242 643.033, 113.888 657.486, 172.852 689.574, 201.053 786.010, 174.250 "
fill = "none" stroke = "white"/>
</g>
<g>
<polygon points = "793.585, 820.895 727.214, 870.782 793.473, 1000.000 841.332, 1000.000 872.844, 897.385 807.143, 817.862 "
fill = "none" stroke = "white"/>
</g>
<g>
<polygon points = "587.963, 741.564 586.242, 806.144 693.899, 846.941 652.920, 722.209 "
fill = "none" stroke = "white"/>
</g>
<g>
<polygon points = "311.434, 114.002 416.257, 77.609 433.587, 8.293 432.460, 0.000 286.067, 0.000 "
fill = "none" stroke = "white"/>
</g>
<g>
<polygon points = "382.000, 732.819 339.775, 653.636 235.445, 649.332 173.678, 730.633 175.887, 744.640 203.658, 764.942 230.349, 776.749 367.462, 770.108 "
fill = "none" stroke = "white"/>
</g>
<g>
<polygon points = "807.143, 817.862 853.162, 779.175 827.454, 667.783 811.110, 662.730 720.424, 692.661 793.585, 820.895 "
fill = "none" stroke = "white"/>
</g>
<g>
<polygon points = "0.000, 92.189 76.726, 44.399 74.599, 0.000 0.000, 0.000 "
fill = "none" stroke = "white"/>
</g>
<g>
<polygon points = "777.957, 571.180 773.811, 590.742 811.110, 662.730 827.454, 667.783 866.482, 638.520 812.240, 570.022 "
fill = "none" stroke = "white"/>
</g>
<g>
<polygon points = "175.887, 744.640 75.441, 847.619 99.899, 901.878 124.698, 948.040 192.449, 859.031 203.658, 764.942 "
fill = "none" stroke = "white"/>
</g>
<g>
<polygon points = "375.899, 896.721 375.595, 895.885 249.572, 861.425 159.751, 1000.000 371.144, 1000.000 "
fill = "none" stroke = "white"/>
</g>
<g>
<polygon points = "567.666, 194.634 560.695, 211.164 566.543, 228.306 581.986, 236.168 650.721, 241.296 657.633, 236.958 659.560, 234.087 637.434, 190.021 "
fill = "none" stroke = "white"/>
</g>
<g>
<polygon points = "822.554, 302.554 687.801, 340.569 659.100, 363.699 654.285, 370.157 642.525, 398.045 655.930, 464.427 729.596, 473.172 777.732, 455.001 875.215, 372.472 "
fill = "none" stroke = "white"/>
</g>
<g>
<polygon points = "587.963, 741.564 652.920, 722.209 675.669, 690.018 569.448, 561.947 581.236, 738.024 "
fill = "none" stroke = "white"/>
</g>
<g>
<polygon points = "204.775, 459.158 121.525, 392.717 93.665, 391.356 78.932, 404.277 74.016, 518.161 176.671, 496.708 202.662, 490.221 "
fill = "none" stroke = "white"/>
</g>
<g>
<polygon points = "566.543, 228.306 534.932, 290.763 535.721, 294.497 602.144, 377.150 642.525, 398.045 654.285, 370.157 581.986, 236.168 "
fill = "none" stroke = "white"/>
</g>
<g>
<polygon points = "130.631, 78.656 120.793, 114.425 228.429, 218.422 270.135, 205.251 151.701, 74.986 "
fill = "none" stroke = "white"/>
</g>
<g>
<polygon points = "564.190, 552.819 563.954, 552.994 535.663, 596.311 527.862, 731.197 581.236, 738.024 569.448, 561.947 "
fill = "none" stroke = "white"/>
</g>
<g>
<polygon points = "634.211, 489.764 655.930, 464.427 642.525, 398.045 602.144, 377.150 489.481, 379.923 464.683, 402.987 469.696, 428.851 565.126, 536.057 569.123, 539.393 "
fill = "none" stroke = "white"/>
</g>
<g>
<polygon points = "339.775, 653.636 382.000, 732.819 421.331, 722.082 471.163, 650.366 386.790, 573.597 362.698, 572.350 "
fill = "none" stroke = "white"/>
</g>
<g>
<polygon points = "563.954, 552.994 386.790, 573.597 471.163, 650.366 535.663, 596.311 "
fill = "none" stroke = "white"/>
</g>
<g>
<polygon points = "75.441, 847.619 175.887, 744.640 173.678, 730.633 115.758, 687.000 0.000, 734.976 0.000, 815.532 "
fill = "none" stroke = "white"/>
</g>
<g>
<polygon points = "650.721, 241.296 659.100, 363.699 687.801, 340.569 704.217, 272.821 657.633, 236.958 "
fill = "none" stroke = "white"/>
</g>
<g>
<polygon points = "903.644, 69.741 1000.000, 123.773 1000.000, 0.000 981.210, 0.000 "
fill = "none" stroke = "white"/>
</g>
<g>
<polygon points = "386.803, 309.725 390.278, 363.131 464.683, 402.987 489.481, 379.923 492.509, 352.848 449.267, 293.275 "
fill = "none" stroke = "white"/>
</g>
<g>
<polygon points = "647.654, 921.737 714.217, 870.588 693.899, 846.941 586.242, 806.144 535.952, 853.503 547.745, 875.576 579.487, 905.623 637.610, 922.457 "
fill = "none" stroke = "white"/>
</g>
<g>
<polygon points = "359.158, 563.320 394.101, 491.540 394.663, 484.494 346.027, 409.446 306.743, 417.433 325.895, 542.099 "
fill = "none" stroke = "white"/>
</g>
<g>
<polygon points = "78.932, 404.277 93.665, 391.356 68.652, 330.626 0.000, 322.971 0.000, 417.949 "
fill = "none" stroke = "white"/>
</g>
<g>
<polygon points = "812.252, 68.356 903.645, 69.741 981.210, 0.000 807.284, 0.000 "
fill = "none" stroke = "white"/>
</g>
<g>
<polygon points = "877.357, 527.534 837.384, 514.090 825.272, 563.360 882.250, 566.840 "
fill = "none" stroke = "white"/>
</g>
<g>
<polygon points = "77.742, 279.863 0.000, 245.450 0.000, 322.971 68.652, 330.626 "
fill = "none" stroke = "white"/>
</g>
<g>
<polygon points = "386.803, 309.725 449.267, 293.275 465.856, 280.819 469.076, 222.556 306.210, 213.404 "
fill = "none" stroke = "white"/>
</g>
<g>
<polygon points = "659.560, 234.087 657.633, 236.958 704.217, 272.821 721.625, 257.304 670.955, 223.799 "
fill = "none" stroke = "white"/>
</g>
<g>
<polygon points = "75.441, 847.619 0.000, 815.532 0.000, 928.195 99.899, 901.878 "
fill = "none" stroke = "white"/>
</g>
<g>
<polygon points = "807.336, 217.456 822.554, 302.554 875.215, 372.472 876.894, 372.768 952.392, 362.339 938.727, 200.146 "
fill = "none" stroke = "white"/>
</g>
<g>
<polygon points = "47.834, 544.782 0.000, 424.448 0.000, 568.784 "
fill = "none" stroke = "white"/>
</g>
<g>
<polygon points = "581.236, 738.024 527.862, 731.197 501.106, 741.437 516.535, 824.366 529.649, 850.981 535.952, 853.503 586.242, 806.144 587.963, 741.564 "
fill = "none" stroke = "white"/>
</g>
</svg>
